{"title":"Flight 2012 BRRip 720p x264 AAC - PRiSTiNE [P2PDL]","uid":8089380,"size":823979231,"categoryP":"video","categoryS":"hd___movies","magnet":"?xt=urn:btih:a0c837a193c459df57def75631d9fb16adaa0948&amp;dn=Flight+2012+BRRip+720p+x264+AAC+-+PRiSTiNE+%5BP2PDL%5D&amp;tr=udp%3A%2F%2Ftracker.openbittorrent.com%3A80&amp;tr=udp%3A%2F%2Fopen.demonii.com%3A1337&amp;tr=udp%3A%2F%2Ftracker.coppersurfer.tk%3A6969&amp;tr=udp%3A%2F%2Fexodus.desync.com%3A6969","seeders":6,"leechers":0,"uploader":"Vitamin_X","files":-1,"time":1359679671,"description":"_________________________  Visit us at _________________________\n  &lt;a href=&quot;\nhttp://p2pdl.com&quot; rel=&quot;nofollow&quot; target=&quot;_NEW&quot;&gt;\nhttp://p2pdl.com&lt;/a&gt;  ____________________________ &lt;a href=&quot; http://p2pdl.com&quot; rel=&quot;nofollow&quot; target=&quot;_NEW&quot;&gt; http://p2pdl.com&lt;/a&gt;\n\n &lt;a href=&quot;\nhttp://www.shotpix.com/images/77189558248099141961.jpg&quot; rel=&quot;nofollow&quot; target=&quot;_NEW&quot;&gt;\nhttp://www.shotpix.com/images/77189558248099141961.jpg&lt;/a&gt;\n\n\nFlight 2012 BRRip 720p x264 AAC - PRiSTiNE [P2PDL]\n\t\t\t\t\nGenre: Drama\nAn airline pilot saves a flight from crashing, but an investigation into the malfunctions reveals something troubling.\nDirector: Robert Zemeckis\nStars: Denzel Washington, Nadine Velazquez, Don Cheadle\nRated: Rated R for drug and alcohol abuse, language, sexuality/nudity and an intense action.\n\nInfo:  &lt;a href=&quot;\nhttp://www.imdb.com/title/tt1907668/&quot; rel=&quot;nofollow&quot; target=&quot;_NEW&quot;&gt;\nhttp://www.imdb.com/title/tt1907668/&lt;/a&gt;\n &lt;a href=&quot;\nhttp://www.rottentomatoes.com/m/flight_2012/&quot; rel=&quot;nofollow&quot; target=&quot;_NEW&quot;&gt;\nhttp://www.rottentomatoes.com/m/flight_2012/&lt;/a&gt;\n\n\nGeneral\nFormat                         : MPEG-4\nFormat profile                 : Base Media / Version 2\nCodec ID                       : mp42\nFile size                      : 778 MiB\nDuration                       : 2h 18mn\nOverall bit rate mode          : Variable\nOverall bit rate               : 785 Kbps\nMovie name                     : Flight 2012 BRRip 720p x264 AAC - PRiSTiNE [P2PDL]\n\nSource                         : 720p.BluRay.X264 SPARKS (Thanks)\n\n\nVideo\nFormat                         : AVC\nBit rate                       : 700 Kbps\nWidth                          : 1 280 pixels\nHeight                         : 528 pixels\nDisplay aspect ratio           : 2.40:1\nFrame rate mode                : Variable\nFrame rate                     : 23.976 fps\nColor space                    : YUV\nChroma subsampling             : 4:2:0\nBit depth                      : 8 bits\nScan type                      : Progressive\nBits/(Pixel*Frame)             : 0.043\nStream size                    : 694 MiB (89%)\nWriting library                : x264 core 128\n\nAudio\nFormat                         : AAC\nBit rate                       : 79.9 Kbps\nChannel(s)                     : 2 channels\nChannel positions              : Front: L R\nSampling rate                  : 48.0 KHz\nStream size                    : 79.2 MiB (10%)\n\nSubtitle                       : Yes ( English)\n\n\nScreens:\n &lt;a href=&quot;\nhttp://www.shotpix.com/images/56534908419053524213.jpg&quot; rel=&quot;nofollow&quot; target=&quot;_NEW&quot;&gt;\nhttp://www.shotpix.com/images/56534908419053524213.jpg&lt;/a&gt; &lt;a href=&quot;\nhttp://www.shotpix.com/images/31764904654858148736.jpg&quot; rel=&quot;nofollow&quot; target=&quot;_NEW&quot;&gt;\nhttp://www.shotpix.com/images/31764904654858148736.jpg&lt;/a&gt; &lt;a href=&quot;\nhttp://www.shotpix.com/images/82990775474420912027.jpg&quot; rel=&quot;nofollow&quot; target=&quot;_NEW&quot;&gt;\nhttp://www.shotpix.com/images/82990775474420912027.jpg&lt;/a&gt; &lt;a href=&quot;\nhttp://www.shotpix.com/images/95295247025475249113.jpg&quot; rel=&quot;nofollow&quot; target=&quot;_NEW&quot;&gt;\nhttp://www.shotpix.com/images/95295247025475249113.jpg&lt;/a&gt; &lt;a href=&quot;\nhttp://www.shotpix.com/images/81214204837246725880.jpg&quot; rel=&quot;nofollow&quot; target=&quot;_NEW&quot;&gt;\nhttp://www.shotpix.com/images/81214204837246725880.jpg&lt;/a&gt;\n\n\nThumbs:\n &lt;a href=&quot;\nhttp://www.shotpix.com/images/84792319017940595632.jpg&quot; rel=&quot;nofollow&quot; target=&quot;_NEW&quot;&gt;\nhttp://www.shotpix.com/images/84792319017940595632.jpg&lt;/a&gt;\n\n----------------------------------------------------------------------------------------------------\n\n\nRecommend to you to use latest version of VLC player. Install K-Lite Codec Pack or shark007 codecs\nin case of any kind of problem in playback (For non-VLC Media Player users). Alternatively, install\nCore AVC codecs, the fastest decoder that there is coupled with Community Center Codec Pack and play\non Windows Media Player Classic. Check sample to be sure.\nEnjoy!\n\nGreets to: VYTO, a2zRG, MusiK_KinG, Neon, Kuroyukihime, TorDigger, Ash968, StyLishSaLH and staff members at\nExtraTorrent, TPB, H33T, KAT, 1337x, PublicHD, Ahashare, BTScene, SilverTorrent, LimeTorrents, TorrentMafia,\nP2PDL, and all others.\n\nEncoder Notes: Looking For Early Access To Anything You Can Provide DVDScr, R5, DVDR, BluRay, Direct\nAudio, Early Music Releases, Seedboxes, Dedicated Servers anything u can provide, Advance / Promo CDs/\nDVDs. If You Got anything to offer contact me at &quot;&lt;a class=&quot;__cf_email__&quot; href=&quot;/cdn-cgi/l/email-protection&quot; data-cfemail=&quot;f1818396b199848299df929e9c&quot;&gt;[email&amp;#160;protected]&lt;/a&gt;&lt;script cf-hash='f9e31' type=&quot;text/javascript&quot;&gt;\n/* &lt;![CDATA[ */!function(){try{var t=&quot;currentScript&quot;in document?document.currentScript:function(){for(var t=document.getElementsByTagName(&quot;script&quot;),e=t.length;e--;)if(t[e].getAttribute(&quot;cf-hash&quot;))return t[e]}();if(t&amp;&amp;t.previousSibling){var e,r,n,i,c=t.previousSibling,a=c.getAttribute(&quot;data-cfemail&quot;);if(a){for(e=&quot;&quot;,r=parseInt(a.substr(0,2),16),n=2;a.length-n;n+=2)i=parseInt(a.substr(n,2),16)^r,e+=String.fromCharCode(i);e=document.createTextNode(e),c.parentNode.replaceChild(e,c)}}}catch(u){}}();/* ]]&gt; */&lt;/script&gt;&quot;.\n\nFan Page: www .. com / p2pdl","torrent":{"xt":"urn:btih:a0c837a193c459df57def75631d9fb16adaa0948","amp;dn":"Flight+2012+BRRip+720p+x264+AAC+-+PRiSTiNE+%5BP2PDL%5D","amp;tr":["udp%3A%2F%2Ftracker.openbittorrent.com%3A80","udp%3A%2F%2Fopen.demonii.com%3A1337","udp%3A%2F%2Ftracker.coppersurfer.tk%3A6969","udp%3A%2F%2Fexodus.desync.com%3A6969"],"infoHash":"a0c837a193c459df57def75631d9fb16adaa0948","infoHashBuffer":{"type":"Buffer","data":[160,200,55,161,147,196,89,223,87,222,247,86,49,217,251,22,173,170,9,72]},"announce":[],"urlList":[]}}